<svg xmlns="http://www.w3.org/2000/svg" width="100%" height="100%" viewBox="0 0 110.156 38.297">
   <path
      d="M2.682-31.763,4.693-34.8a14.625,14.625,0,0,1,.021,6,17.4,17.4,0,0,1-.542,1.937c-.057.169-.364,1.064-.087,1.33.156.187,1.465-.027,2.828-.23a11.482,11.482,0,0,1,3-.3A11.662,11.662,0,0,1,9.1-27.288a6.592,6.592,0,0,1-.951-1.768A45.257,45.257,0,0,1,7.012-34.8a1.448,1.448,0,0,1,.137-1.02C7.433-36.3,9.1-38.741,9.1-38.741s.024-.272.434.174c.141.154.255.433.454.7.336.451.749.91.749.91l-1.257,1.93.355,1.582A12.655,12.655,0,0,0,11.53-29.2a18.366,18.366,0,0,0,1.624,2.034,5.624,5.624,0,0,1,.851,1.219c-.049.047-.777,1.2-1.359,2.121-.357.564-.606,1.105-.817,1.084-.535-.054-1.777-.239-3.31-.291a23.878,23.878,0,0,0-4.46.456c-1.029.193-1.838.313-1.838.313s-.142.088-.069-.249a3.714,3.714,0,0,1,.2-.727c.273-.763.489-1.159.711-1.657a3.95,3.95,0,0,0,.364-1.964A32.887,32.887,0,0,0,2.682-31.763Z"
      transform="translate(-1.252 57.456)" fill="#fff" />
   <path
      d="M-1.463.942s.118-.09.4.069a1.77,1.77,0,0,1,.5.466l-2,3.088A1.325,1.325,0,0,0-3,4.135a.565.565,0,0,0-.487-.116Z"
      transform="translate(3.484 20.464)" fill="#fff" />
   <path
      d="M-35.036-83.917s0,.367.034.713.1.671.1.671l.486-.472,2.9,2.2s1.778,1.128,3.026,2.014a20.3,20.3,0,0,1,1.925,1.518,25.194,25.194,0,0,1-.693-2.5,20.893,20.893,0,0,1-.365-2.6l2.687-2.718a15.009,15.009,0,0,0,.518,3.117c.53,2.234,1.6,5.817,1.6,5.817s.779,2.114,1.139,3.31a4.163,4.163,0,0,1,.3,1.474l-2.542,2.624s-.095.133-.16.127-.118-.031-.247-.2A52.4,52.4,0,0,0-28.5-73.768a20.887,20.887,0,0,0-3.99-3.168,14.72,14.72,0,0,1,1.189,2.3,17.5,17.5,0,0,1,.766,2.587l-2.688,2.691-.073-.247a11.659,11.659,0,0,0-.576-2.23,15.953,15.953,0,0,0-1.121-2.272A19.324,19.324,0,0,1-37.1-77.836a9.192,9.192,0,0,1-.6-3.363Z"
      transform="translate(47.959 105.552)" fill="#fff" />
   <path d="M-2.922-10.63l2.759-2.79.015,1.2L-2.921-9.418Z" transform="translate(23.01 32.17)"
      fill="#fff" />
   <path
      d="M-11.531-12.191l2.582-2.615a2.33,2.33,0,0,1,.447.6c.212.388.446.97.8,1.525A5.766,5.766,0,0,0-6.51-11.342,20.678,20.678,0,0,0-4.1-9.651s.848.533,2.072,1.263A21.3,21.3,0,0,1,3.284-4.346,6.712,6.712,0,0,1,4.747,1.233,3.613,3.613,0,0,1,3.7,3.007c-.876.835-2.6,2.611-2.6,2.611S.019,6.974-3.923,7.01-9.558,5.687-9.558,5.687s-.491-.309-.37-.741.853-.988.853-.988l1.968-2.023a2.711,2.711,0,0,1,.435-.3c.266-.148,3.4-1.746,3.4-1.746l.125.581.89-.326L-4.529,2.617s-1.03.411-1.534.6-.481.146-.481.146.176.1.386.195.452.179.452.179l.08-.069-.119-.744-.141-.7L-3.059.964s.034.324.037.515a.519.519,0,0,1-.037.254L-5.207,3.9a16.009,16.009,0,0,0,3.8.537,13.39,13.39,0,0,0,3.585-.576A6.723,6.723,0,0,0,.922-1.374C-.984-3.924-5.451-6.333-5.451-6.333A27.2,27.2,0,0,1-4.389-3.71c.544,1.557,1.116,3.6,1.116,3.6L-6.139,1.409A43.33,43.33,0,0,0-8.026-3.71,7.6,7.6,0,0,0-9.842-6.39l1.658-1.672a11,11,0,0,1-1.966-1.82,10.6,10.6,0,0,1-.994-1.779A2.192,2.192,0,0,0-11.531-12.191Z"
      transform="translate(36.206 30.251)" fill="#fff" />
   <path
      d="M-17.645-6.471l2.583-2.586s.386.41.721.8.618.76.618.76.522.215,1.453.534a22.1,22.1,0,0,0,3.741.958,41.352,41.352,0,0,0,7.068.294L-3.984-3.1s-2.455.108-4.435,0A24.706,24.706,0,0,1-11.9-3.529l.791,3.982,1.788-1.773A12.22,12.22,0,0,0-7.365-1.2c1.591.029,4.405,0,4.405,0L-5.546,1.383l-3.524.041-1.912-.041s.125,1.713.153,2.666a4.355,4.355,0,0,1-.041,1.144A4.1,4.1,0,0,1-8.035,3.537,20.513,20.513,0,0,1-2.6,3.774a3.771,3.771,0,0,1-.032-.467,4.588,4.588,0,0,1,.032-.5L-.031.181A4.094,4.094,0,0,0,.362,2.633a7.144,7.144,0,0,0,1.555,1.6,5.786,5.786,0,0,1,.57.542c.149.188.027.209.027.209L-.044,7.612a18.256,18.256,0,0,1-2.5-.492A22.289,22.289,0,0,0-8.035,6a7.9,7.9,0,0,0-3.894.609l-1.512,1.538a23.389,23.389,0,0,0-.137-4.169c-.281-2.319-.842-4.259-.988-5.106A11.272,11.272,0,0,0-16.3-4.876s-.308-.087-.489-.132a1.807,1.807,0,0,0-.236-.05l.31-.327Z"
      transform="translate(56.058 28.762)" fill="#fff" />
   <path
      d="M.26,1.018A2.638,2.638,0,0,1,.314.653,1.02,1.02,0,0,1,.573.341C.706.213.957.006.957.006L.766,3.231l-.06.428A2.951,2.951,0,0,0,.427,3.9c-.062.068-.151.116-.21.193A1.645,1.645,0,0,0,.108,4.3a.563.563,0,0,0-.079.189s.056-.753.1-1.614A17.262,17.262,0,0,1,.26,1.018Z"
      transform="translate(55.093 22.616) rotate(41)" fill="#fff" />
   <path
      d="M-51.471-91.819l1.156-1.033a2.975,2.975,0,0,1-.828-.652,1.845,1.845,0,0,1-.343-.84l2.952-2.6s-.027.843,1.227,1.518a18.113,18.113,0,0,0,3.791,1.183s3.583.613,3.445,2.079a3.032,3.032,0,0,1-1.1,1.755c-.2.188-.686.588-.686.588l-1.056.929-.231-.348.039-.2v-.268s.042-.545-.958-1.061a18.018,18.018,0,0,0-3.039-1l2.053,4.1s.923-.837,1.409-1.244.535-.386.535-.386l.192.413,1.535-.133,2.2-.28.814-.139.343-.1.365-.2.109-.029s.513,1.484.9,2.74.637,2.286.637,2.286l1.114-1s-.032,1.121-.13,1.984a10.954,10.954,0,0,1-.26,1.465l-3,2.634-.244-.658-1.453-5.5a3.236,3.236,0,0,0-.373-.793c-.159-.157-.747-.1-.747-.1l-3.353.346s.312.622.6,1.35.556,1.561.556,1.561a.8.8,0,0,1,.038.273.224.224,0,0,1-.1.156l-2.961,2.58a.385.385,0,0,1-.159-.069c-.095-.063-.257-.188-.257-.188l.4-.365a41.687,41.687,0,0,0-1.806-4.237C-49.422-88.006-51.471-91.819-51.471-91.819Z"
      transform="translate(106.89 117.08)" fill="#fff" />
   <path d="M.028.325l3.921-.35L3.926.422,0,.8Z"
      transform="matrix(0.809, -0.588, 0.588, 0.809, 68.509, 37.648)" fill="#fff" />
   <path
      d="M-23.561-92.861l.328.341-.059.027h-.053a2.623,2.623,0,0,0,.053,1.318,4.523,4.523,0,0,0,.824,1.328,6.845,6.845,0,0,0,3.454,2,5.8,5.8,0,0,0,4.151-.432,5.905,5.905,0,0,0,.611-3.046c-.245-1.339-.73-1.679-1.975-2.481a9.9,9.9,0,0,0-3.811-.925l1.63,1.54a7.377,7.377,0,0,1,.72.87.865.865,0,0,1,.187.56l-2.669,2.7s.1-.251-.33-.787a14.156,14.156,0,0,0-1.375-1.359L-23-92.267l-.659-.71-.184-.232s-.591-.75-.375-1.037.931-.988.931-.988l1.2-1.211s.675-.846,1.154-.912,2.075-.137,2.075-.137a11.762,11.762,0,0,1,3.782.4,5.372,5.372,0,0,1,2.876,1.666,3.528,3.528,0,0,1,.48,3.436,11.061,11.061,0,0,1-2.958,3.874,12.057,12.057,0,0,1-3.949,3.086,4.847,4.847,0,0,1-3.714-.367,10.6,10.6,0,0,1-2.886-1.69,2.389,2.389,0,0,1-.773-1.823,3.455,3.455,0,0,1,.491-1.792,8.935,8.935,0,0,1,1.585-1.771Z"
      transform="translate(108.287 120.036)" fill="#fff" />
   <path
      d="M-23.561-92.861l.328.341-.059.027h-.053a2.623,2.623,0,0,0,.053,1.318,4.523,4.523,0,0,0,.824,1.328,6.845,6.845,0,0,0,3.454,2,5.8,5.8,0,0,0,4.151-.432,5.905,5.905,0,0,0,.611-3.046c-.245-1.339-.73-1.679-1.975-2.481a9.9,9.9,0,0,0-3.811-.925l1.63,1.54a7.377,7.377,0,0,1,.72.87.865.865,0,0,1,.187.56l-2.669,2.7s.1-.251-.33-.787a14.156,14.156,0,0,0-1.375-1.359L-23-92.267l-.659-.71-.184-.232s-.591-.75-.375-1.037.931-.988.931-.988l1.2-1.211s.675-.846,1.154-.912,2.075-.137,2.075-.137a11.762,11.762,0,0,1,3.782.4,5.372,5.372,0,0,1,2.876,1.666,3.528,3.528,0,0,1,.48,3.436,11.061,11.061,0,0,1-2.958,3.874,12.057,12.057,0,0,1-3.949,3.086,4.847,4.847,0,0,1-3.714-.367,10.6,10.6,0,0,1-2.886-1.69,2.389,2.389,0,0,1-.773-1.823,3.455,3.455,0,0,1,.491-1.792,8.935,8.935,0,0,1,1.585-1.771Z"
      transform="translate(95.533 120.036)" fill="#fff" />
   <path
      d="M-22.009-14.105a2.773,2.773,0,0,0,.124.74.962.962,0,0,0,.322.434l-2.672,2.7a.71.71,0,0,1-.31-.383,3.42,3.42,0,0,1-.142-.779Z"
      transform="translate(113.863 42.285)" fill="#fff" />
   <path
      d="M-22.009-14.105a2.773,2.773,0,0,0,.124.74.962.962,0,0,0,.322.434l-2.672,2.7a.71.71,0,0,1-.31-.383,3.42,3.42,0,0,1-.142-.779Z"
      transform="translate(101.109 42.285)" fill="#fff" />
   <path
      d="M-63.97-81.1s.455-.058,1.234-.091,1.884-.041,1.884-.041l-2.179,2.222,1.2,4.675-2.691,2.7a3.733,3.733,0,0,1-.4-.468c-.235-.316-.54-.794-.54-.794a2.156,2.156,0,0,0-.74-.629,1.544,1.544,0,0,0-.872-.045l1.659-1.69s-.28-.925-.585-1.708-.636-1.423-.636-1.423a7.334,7.334,0,0,0-1.489.277,3.438,3.438,0,0,0-1.056.576l1.924-1.967s-1.975-2.837-3.017-4.49a9.784,9.784,0,0,1-1.153-2.12l2.7-2.791a2.129,2.129,0,0,1,.507.361,9.483,9.483,0,0,0,3.374,1.939,23.916,23.916,0,0,0,3.138.878c1.554.317,3.217.515,4.275.738,1.161.245.988.46.988.46l-2.681,2.692s-.012-.105-.225-.217a4.442,4.442,0,0,0-1.05-.288c-.655-.137-1.293-.172-2.3-.338-1.3-.215-2.5-.489-2.5-.489s.147.221.454.738S-63.97-81.1-63.97-81.1Z"
      transform="translate(166.589 108.876)" fill="#fff" />
   <path
      d="M-.979-19.673A.4.4,0,0,1-.763-19.7a.363.363,0,0,1,.171.125,28.1,28.1,0,0,0,.805,4.032,29.033,29.033,0,0,0,1.48,3.88l.162-2.219S3.523-15.452,4.937-16.9C6.044-18.033,7-19.092,7.391-19.537a.6.6,0,0,1,.238-.182c.136-.065.213-.056.3.043s.053.405.053.405a7.431,7.431,0,0,0,.085,1.808,5.748,5.748,0,0,0,1.191,2.883,29.332,29.332,0,0,0,3.038,3.647,7.616,7.616,0,0,1,.923,1.542,1.718,1.718,0,0,1,.073,1.132L7.435-2.4A13.25,13.25,0,0,0,5.906-5.044a43.612,43.612,0,0,0-2.8-3.346S.8-5.881-.7-4.41a15.122,15.122,0,0,1-2.207,1.9A22.147,22.147,0,0,1-4.3-5.184,28.54,28.54,0,0,1-5.377-8.258L-7.616-5.781a.248.248,0,0,1-.223.116c-.137-.021-.232.014-.326-.2a1.111,1.111,0,0,1,0-.577l1.239-7.123a.985.985,0,0,1,.123-.342,1.561,1.561,0,0,1,.277-.315Z"
      transform="translate(52.046 19.76)" fill="#fff" />
</svg>